<?xml version="1.0" encoding="UTF-8" standalone="no"?>
<!DOCTYPE svg PUBLIC "-//W3C//DTD SVG 1.1//EN" "http://www.w3.org/Graphics/SVG/1.1/DTD/svg11.dtd">
<svg width="100%" height="100%" viewBox="0 0 80 16" version="1.1" xmlns="http://www.w3.org/2000/svg" xmlns:xlink="http://www.w3.org/1999/xlink" xml:space="preserve" xmlns:serif="http://www.serif.com/" style="fill-rule:evenodd;clip-rule:evenodd;stroke-linecap:round;stroke-linejoin:round;">
    <g transform="matrix(1,1.66533e-16,1.66533e-16,1,-2,1.27676e-15)">
        <path d="M12,4L4,12" style="fill:none;fill-rule:nonzero;stroke:rgb(169,169,169);stroke-width:1px;"/>
    </g>
    <g transform="matrix(1,-9.71445e-17,-9.71445e-17,1,-2,4.21885e-15)">
        <path d="M4,4L12,12" style="fill:none;fill-rule:nonzero;stroke:rgb(169,169,169);stroke-width:1px;"/>
    </g>
    <g transform="matrix(1,3.60822e-16,3.60822e-16,1,14,0)">
        <path d="M12,4L4,12" style="fill:none;fill-rule:nonzero;stroke:rgb(214,0,0);stroke-width:1px;"/>
    </g>
    <g transform="matrix(1,8.32667e-17,8.32667e-17,1,14,-4.44089e-16)">
        <path d="M4,4L12,12" style="fill:none;fill-rule:nonzero;stroke:rgb(214,0,0);stroke-width:1px;"/>
    </g>
    <g transform="matrix(1,1.30451e-15,1.30451e-15,1,46,4.44089e-15)">
        <path d="M12,4L4,12" style="fill:none;fill-rule:nonzero;stroke:rgb(169,169,169);stroke-width:1px;"/>
    </g>
    <g transform="matrix(1,1.94289e-16,2.08167e-16,1,46,-1.33227e-15)">
        <path d="M4,4L12,12" style="fill:none;fill-rule:nonzero;stroke:rgb(169,169,169);stroke-width:1px;"/>
    </g>
    <g transform="matrix(1,-2.35922e-16,-2.35922e-16,1,62,1.77636e-15)">
        <path d="M12,4L4,12" style="fill:none;fill-rule:nonzero;stroke:rgb(214,0,0);stroke-width:1px;"/>
    </g>
    <g transform="matrix(1,-1.70697e-15,-1.72085e-15,1,62,2.93099e-14)">
        <path d="M4,4L12,12" style="fill:none;fill-rule:nonzero;stroke:rgb(214,0,0);stroke-width:1px;"/>
    </g>
</svg>
